<?xml version="1.0" standalone="no"?>
<!DOCTYPE svg PUBLIC "-//W3C//DTD SVG 20010904//EN"
 "http://www.w3.org/TR/2001/REC-SVG-20010904/DTD/svg10.dtd">
<svg version="1.0" xmlns="http://www.w3.org/2000/svg"
 width="326.000000pt" height="154.000000pt" viewBox="0 0 326.000000 154.000000"
 preserveAspectRatio="xMidYMid meet">

<g transform="translate(0.000000,154.000000) scale(0.100000,-0.100000)"
fill="#000000" stroke="none">
<path d="M64 1423 c7 -25 296 -1259 296 -1265 0 -3 53 22 118 54 169 83 270
109 462 115 232 8 415 -31 616 -132 l82 -42 89 44 c106 52 237 96 358 118 71
14 125 16 250 12 198 -6 298 -31 466 -115 l116 -58 146 626 c81 344 147 633
147 643 0 15 -11 17 -90 17 -49 0 -90 -3 -90 -7 0 -5 5 -24 10 -45 24 -84 -28
-190 -113 -233 -115 -57 -246 -13 -298 100 -20 44 -25 135 -9 166 11 19 -7 19
-1275 19 -1220 0 -1286 -1 -1281 -17z m2276 -346 c0 -46 -4 -57 -30 -82 -35
-33 -49 -27 -33 15 11 28 10 30 -13 30 -22 0 -24 4 -24 45 l0 45 50 0 50 0 0
-53z m-1061 7 c93 -27 165 -112 172 -204 l4 -45 -182 -3 c-204 -3 -211 -6
-153 -64 28 -28 35 -30 85 -26 31 3 63 12 73 21 14 13 37 17 90 17 40 0 72 -4
72 -8 0 -23 -75 -92 -118 -109 -72 -28 -221 -25 -287 5 -92 42 -136 106 -137
197 -1 74 17 118 66 163 74 68 200 91 315 56z m1447 -16 c43 -22 94 -75 94
-99 0 -5 -31 -9 -70 -9 -60 0 -72 3 -94 25 -29 29 -99 35 -132 11 -17 -13 -18
-16 -3 -31 8 -8 54 -22 103 -31 159 -27 206 -59 206 -140 0 -34 -7 -51 -30
-78 -46 -51 -106 -71 -220 -71 -107 1 -156 19 -204 75 -42 51 -36 60 41 60 53
0 71 -4 88 -20 40 -38 145 -34 145 4 0 21 -8 24 -107 41 -48 9 -106 25 -128
35 -124 60 -86 204 64 247 69 20 188 10 247 -19z m-2056 -138 l0 -160 115 0
116 0 -3 -57 -3 -58 -207 -3 -208 -2 0 220 0 220 95 0 95 0 0 -160z m1007 30
c37 -71 70 -130 73 -130 3 0 33 59 67 130 l61 130 66 0 66 0 -110 -220 -110
-220 -78 0 -78 0 -114 211 c-63 116 -116 215 -118 220 -2 5 42 9 102 9 l105 0
68 -130z m531 -87 l-3 -218 -90 0 -90 0 -3 218 -2 217 95 0 95 0 -2 -217z"/>
<path d="M1143 999 c-23 -8 -53 -46 -53 -66 0 -10 23 -13 85 -13 75 0 85 2 85
18 0 44 -68 79 -117 61z"/>
<path d="M2661 1409 c-17 -49 -13 -101 12 -149 84 -167 327 -104 327 84 0 68
-14 96 -48 96 -26 0 -28 -2 -24 -34 4 -34 -17 -67 -49 -78 -9 -3 -3 -18 19
-50 38 -55 38 -58 12 -58 -13 0 -31 19 -55 55 -23 37 -41 55 -55 55 -18 0 -20
-7 -20 -55 0 -48 -2 -55 -20 -55 -19 0 -20 7 -20 110 l0 110 -34 0 c-29 0 -36
-4 -45 -31z"/>
<path d="M2780 1400 c0 -39 1 -40 36 -40 45 0 74 15 74 40 0 25 -29 40 -74 40
-35 0 -36 -1 -36 -40z"/>
</g>
</svg>
